<?xml version="1.0" encoding="UTF-8" standalone="no"?>
<svg
   xmlns:dc="http://purl.org/dc/elements/1.1/"
   xmlns:cc="http://creativecommons.org/ns#"
   xmlns:rdf="http://www.w3.org/1999/02/22-rdf-syntax-ns#"
   xmlns:svg="http://www.w3.org/2000/svg"
   xmlns="http://www.w3.org/2000/svg"
   version="1.1"
   id="svg1356"
   xml:space="preserve"
   width="1122.52"
   height="793.70667"
   viewBox="0 0 1122.52 793.70667"><metadata
     id="metadata1362"><rdf:RDF><cc:Work
         rdf:about=""><dc:format>image/svg+xml</dc:format><dc:type
           rdf:resource="http://purl.org/dc/dcmitype/StillImage" /><dc:title></dc:title></cc:Work></rdf:RDF></metadata><defs
     id="defs1360"><clipPath
       clipPathUnits="userSpaceOnUse"
       id="clipPath1372"><path
         d="M 0,595.28 H 841.89 V 0 H 0 Z"
         id="path1370" /></clipPath></defs><g
     style="fill:#000000"
     id="g1364"
     transform="matrix(1.3333333,0,0,-1.3333333,0,793.70667)"><g
       style="fill:#000000"
       id="g1366"><g
         style="fill:#000000"
         id="g1368"
         clip-path="url(#clipPath1372)"><g
           style="fill:#000000"
           id="g1374"
           transform="translate(264.2505,296.1122)"><path
             d="M 0,0 0.221,0.147 0.277,0.186 0.274,0.19 C 0.256,0.177 0.237,0.164 0.218,0.151 0.146,0.101 0.073,0.05 0,0"
             style="fill:#000000;fill-opacity:1;fill-rule:nonzero;stroke:none"
             id="path1376" /></g><g
           style="fill:#000000"
           id="g1378"
           transform="translate(186.4263,271.7914)"><path
             d="m 0,0 -0.233,0.349 -5.329,7.974 -19.025,28.474 -9.492,14.206 -0.023,0.034 -5.93,-3.963 -8.308,-5.551 c -3.931,-2.627 -4.989,-7.944 -2.362,-11.877 2.624,-3.926 7.929,-4.985 11.859,-2.373 -3.918,-2.631 -4.969,-7.938 -2.345,-11.864 2.623,-3.927 7.928,-4.986 11.859,-2.373 -3.918,-2.632 -4.97,-7.939 -2.347,-11.865 2.624,-3.926 7.93,-4.985 11.86,-2.373 -3.917,-2.631 -4.969,-7.939 -2.346,-11.865 2.628,-3.932 7.945,-4.99 11.877,-2.362 h 10e-4 l 8.306,5.551 5.931,3.962 z"
             style="fill:#000000;fill-opacity:1;fill-rule:nonzero;stroke:none"
             id="path1380" /></g><g
           style="fill:#000000"
           id="g1382"
           transform="translate(238.479,409.7787)"><path
             d="m 0,0 c 0,-13.843 -5.413,-26.435 -14.216,-35.808 l 19.087,-28.455 0.025,0.017 5.548,-8.272 -8.246,-5.413 c -9.646,-6.446 -13.516,-18.288 -10.297,-28.841 0.694,-2.361 1.749,-4.656 3.164,-6.818 l -3.67,-2.519 c -5.76,-3.849 -8.419,-10.583 -7.374,-17.002 0.382,-2.344 1.244,-4.646 2.649,-6.749 l 35.798,23.98 c 0,0 8.925,6.252 11.487,8.314 31.478,25.313 51.663,64.123 51.663,107.566 0,76.088 -61.902,137.991 -137.991,137.991 h -153.196 v -360.958 h 85.618 v 275.34 h 67.578 C -23.494,52.373 0,28.878 0,0"
             style="fill:#000000;fill-opacity:1;fill-rule:nonzero;stroke:none"
             id="path1384" /></g><g
           style="fill:#000000"
           id="g1386"
           transform="translate(269.9594,288.0457)"><path
             d="m 0,0 -47.528,-31.84 -5.495,8.223 c -2.05,3.068 -3.415,6.451 -4.082,9.97 -0.637,3.361 -0.638,6.845 0.049,10.301 1.137,5.718 4.02,10.802 8.25,14.657 -1.909,5.765 -2.304,11.953 -1.088,18.072 1.853,9.309 7.215,17.34 15.102,22.617 l -3.972,5.945 -12.163,18.079 -2.078,3.11 -0.137,0.205 c -0.01,-0.008 -0.021,-0.016 -0.031,-0.024 -2.726,3.535 -7.753,4.415 -11.52,1.898 -3.836,-2.564 -4.926,-7.684 -2.537,-11.584 l -0.028,-0.018 c -2.689,3.699 -7.837,4.652 -11.673,2.088 -3.837,-2.563 -4.925,-7.683 -2.537,-11.583 l -0.028,-0.019 c -2.689,3.699 -7.836,4.652 -11.673,2.089 -3.836,-2.563 -4.926,-7.684 -2.537,-11.583 l -0.028,-0.019 c -2.689,3.699 -7.836,4.652 -11.672,2.088 -3.837,-2.563 -4.927,-7.683 -2.538,-11.583 l -0.03,-0.02 0.577,-0.832 28.9,-43.255 8.503,-12.725 6.115,-9.153 -14.143,-9.451 44.692,-66.887 H 67.643 Z"
             style="fill:#000000;fill-opacity:1;fill-rule:nonzero;stroke:none"
             id="path1388" /></g><g
           style="fill:#000000"
           id="g1390"
           transform="translate(588.1323,323.4373)"><path
             d="M 0,0 H 33.292 V 44.134 H 0 v 16.62 C 0,71.5 8.442,79.942 19.187,79.942 h 14.199 v 44.135 H 10.359 c -31.85,0 -58.329,-25.713 -58.329,-57.564 V 44.134 H -72.917 V 0 H -47.97 V -137.155 H 0 Z"
             style="fill:#000000;fill-opacity:1;fill-rule:nonzero;stroke:none"
             id="path1392" /></g><g
           style="fill:#000000"
           id="g1394"
           transform="translate(766.7817,251.7108)"><path
             d="m 0,0 c -8.442,-15.733 -21.106,-18.802 -37.993,-18.802 -19.188,0 -32.62,16.115 -32.62,34.537 v 100.126 h -47.97 V 4.221 c 0,-34.921 31.468,-69.075 69.078,-69.075 22.258,0 38.759,8.442 49.505,21.491 L 5.406,-65.429 H 47.97 v 181.29 H 0 Z"
             style="fill:#000000;fill-opacity:1;fill-rule:nonzero;stroke:none"
             id="path1396" /></g><g
           style="fill:#000000"
           id="g1398"
           transform="translate(424.1352,344.9666)"><path
             d="M 0,0 C 9.977,0 18.036,-1.535 24.178,-4.99 V -38.761 H -54.494 C -46.821,-16.501 -25.33,0 0,0 m 0,-112.827 c -24.944,0 -46.436,15.733 -54.111,37.61 H 63.792 v 97.59 C 46.369,36.727 24.503,45.284 0,45.284 -55.646,45.284 -100.93,0 -100.93,-56.415 c 0,-56.029 45.284,-101.695 100.93,-101.695 32.429,0 54.512,15.174 63.775,23.03 l -33.973,30.795 C 24.488,-108.058 14.857,-112.827 0,-112.827"
             style="fill:#000000;fill-opacity:1;fill-rule:nonzero;stroke:none"
             id="path1400" /></g><path
           d="m 211.333,93.764 h 12.424 v 60.939 h -12.424 z"
           style="fill:#000000;fill-opacity:1;fill-rule:nonzero;stroke:none"
           id="path1402" /><g
           style="fill:#000000"
           id="g1404"
           transform="translate(288.3501,117.0633)"><path
             d="M 0,0 -23.624,37.641 H -35.32 v -60.94 h 11.999 v 37.64 L 0.303,-23.299 H 12 v 60.94 H 0 Z"
             style="fill:#000000;fill-opacity:1;fill-rule:nonzero;stroke:none"
             id="path1406" /></g><g
           style="fill:#000000"
           id="g1408"
           transform="translate(325.7856,143.1297)"><path
             d="M 0,0 H 17.361 V -49.365 H 29.955 V 0 H 47.319 V 11.574 H 0 Z"
             style="fill:#000000;fill-opacity:1;fill-rule:nonzero;stroke:none"
             id="path1410" /></g><g
           style="fill:#000000"
           id="g1412"
           transform="translate(409.268,118.9583)"><path
             d="M 0,0 H 22.979 V 11.403 H 0 v 12.768 h 27.236 v 11.575 h -39.661 v -60.94 h 40.511 v 11.573 l -28.086,0 z"
             style="fill:#000000;fill-opacity:1;fill-rule:nonzero;stroke:none"
             id="path1414" /></g><g
           style="fill:#000000"
           id="g1416"
           transform="translate(492.1743,125.7655)"><path
             d="m 0,0 h -15.001 v 17.449 h 8.853 c 4.586,0 9.534,-3.775 9.534,-9.873 C 3.386,3.589 2.039,1.636 0,0 m 15.811,6.979 c 0,12.109 -9.851,21.959 -21.959,21.959 h -21.107 v -60.939 h 12.254 v 20.427 h 8.348 L 3.562,-32.001 H 17.011 L 5.492,-9.654 c 6.106,3.306 10.319,10.049 10.319,16.633"
             style="fill:#000000;fill-opacity:1;fill-rule:nonzero;stroke:none"
             id="path1418" /></g><path
           d="m 534.616,93.764 h 12.424 v 60.939 h -12.424 z"
           style="fill:#000000;fill-opacity:1;fill-rule:nonzero;stroke:none"
           id="path1420" /><g
           style="fill:#000000"
           id="g1422"
           transform="translate(605.1528,110.0052)"><path
             d="M 0,0 -16.192,44.699 H -28.84 v -60.94 h 11.999 V 14.38 L -6.175,-16.241 H 6.454 L 17.12,14.38 v -30.621 h 11.999 v 60.94 H 15.614 Z"
             style="fill:#000000;fill-opacity:1;fill-rule:nonzero;stroke:none"
             id="path1424" /></g><path
           d="m 662.685,116.745 h 151.808 v 11.148 H 662.685 Z"
           style="fill:#000000;fill-opacity:1;fill-rule:nonzero;stroke:none"
           id="path1426" /><path
           d="M 182.922,127.893 H 31.238 v -11.148 h 151.684 z"
           style="fill:#000000;fill-opacity:1;fill-rule:nonzero;stroke:none"
           id="path1428" /><g
           style="fill:#000000"
           id="g1430"
           transform="translate(307.0014,63.1996)"><path
             d="m 0,0 c 0,3.334 -1.768,6.001 -4.636,6.001 -3.033,0 -4.434,-2 -4.434,-6.001 0,-3.701 1.633,-6.002 4.434,-6.002 C -1.801,-6.002 0,-3.368 0,0 m 3,0 c 0,-4.935 -2.968,-8.836 -7.302,-8.836 -2.034,0 -3.635,0.867 -4.768,2.301 v -8.47 h -2.801 V 8.336 h 2.468 L -9.07,6.402 c 1.1,1.467 2.734,2.434 4.768,2.434 C 0.032,8.836 3,4.901 3,0"
             style="fill:#000000;fill-opacity:1;fill-rule:nonzero;stroke:none"
             id="path1432" /></g><g
           style="fill:#000000"
           id="g1434"
           transform="translate(327.2749,63.1996)"><path
             d="m 0,0 c 0,3.368 -2.434,6.001 -5.135,6.001 -2.7,0 -5.135,-2.633 -5.135,-6.001 0,-3.334 2.435,-6.002 5.135,-6.002 C -2.434,-6.002 0,-3.334 0,0 m -13.271,0 c 0,4.935 3.902,8.836 8.136,8.836 4.235,0 8.136,-3.901 8.136,-8.836 0,-4.902 -3.901,-8.836 -8.136,-8.836 -4.234,0 -8.136,3.934 -8.136,8.836"
             style="fill:#000000;fill-opacity:1;fill-rule:nonzero;stroke:none"
             id="path1436" /></g><g
           style="fill:#000000"
           id="g1438"
           transform="translate(348.2163,54.8636)"><path
             d="M 0,0 -3.401,11.87 -6.769,0 h -2.567 l -5.435,16.672 h 2.967 l 3.835,-12.304 3.235,12.304 h 2.633 L 1.167,4.368 5.002,16.672 H 7.97 L 2.567,0 Z"
             style="fill:#000000;fill-opacity:1;fill-rule:nonzero;stroke:none"
             id="path1440" /></g><g
           style="fill:#000000"
           id="g1442"
           transform="translate(362.3569,64.3333)"><path
             d="M 0,0 H 8.235 V 4.101 C 7.702,4.634 6.835,4.968 5.435,4.968 2.5,4.968 0.466,2.7 0,0 m 11.069,-7.569 c 0,0 -1.933,-2.401 -5.634,-2.401 -4.668,0 -8.436,3.968 -8.436,8.836 0,4.901 3.768,8.836 8.436,8.836 2.133,0 4.001,-0.867 5.568,-2.301 V -2.334 H 0 c 0.466,-2.668 2.533,-4.902 5.435,-4.902 2.4,0 3.467,1.634 3.467,1.634 z"
             style="fill:#000000;fill-opacity:1;fill-rule:nonzero;stroke:none"
             id="path1444" /></g><g
           style="fill:#000000"
           id="g1446"
           transform="translate(388.1313,68.8343)"><path
             d="m 0,0 h -0.767 c -3.267,0 -5.201,-2.034 -5.201,-5.302 v -8.669 H -8.702 V 2.701 h 2.4 L -5.968,0.3 c 0.901,1.334 2.367,2.401 4.368,2.401 l 1.6,0 z"
             style="fill:#000000;fill-opacity:1;fill-rule:nonzero;stroke:none"
             id="path1448" /></g><g
           style="fill:#000000"
           id="g1450"
           transform="translate(394.5024,64.3333)"><path
             d="M 0,0 H 8.235 V 4.101 C 7.702,4.634 6.835,4.968 5.435,4.968 2.5,4.968 0.466,2.7 0,0 m 11.069,-7.569 c 0,0 -1.933,-2.401 -5.634,-2.401 -4.668,0 -8.436,3.968 -8.436,8.836 0,4.901 3.768,8.836 8.436,8.836 2.133,0 4.001,-0.867 5.568,-2.301 V -2.334 H 0 c 0.466,-2.668 2.533,-4.902 5.435,-4.902 2.4,0 3.467,1.634 3.467,1.634 z"
             style="fill:#000000;fill-opacity:1;fill-rule:nonzero;stroke:none"
             id="path1452" /></g><g
           style="fill:#000000"
           id="g1454"
           transform="translate(422.311,63.1996)"><path
             d="m 0,0 c 0,3.701 -1.634,6.001 -4.435,6.001 -2.834,0 -4.634,-2.633 -4.634,-6.001 0,-3.334 1.767,-6.002 4.634,-6.002 C -1.4,-6.002 0,-4.001 0,0 M 2.801,-8.336 H 0.334 L 0,-6.402 c -1.1,-1.467 -2.734,-2.434 -4.768,-2.434 -4.335,0 -7.302,3.934 -7.302,8.836 0,4.935 2.967,8.836 7.302,8.836 2.034,0 3.634,-0.867 4.768,-2.301 v 8.969 h 2.801 z"
             style="fill:#000000;fill-opacity:1;fill-rule:nonzero;stroke:none"
             id="path1456" /></g><g
           style="fill:#000000"
           id="g1458"
           transform="translate(453.8237,63.1996)"><path
             d="m 0,0 c 0,3.368 -1.802,6.001 -4.635,6.001 -2.802,0 -4.435,-2.3 -4.435,-6.001 0,-4.001 1.4,-6.002 4.435,-6.002 C -1.768,-6.002 0,-3.334 0,0 m 3.001,0 c 0,-4.902 -2.968,-8.836 -7.303,-8.836 -2.033,0 -3.668,0.967 -4.768,2.434 l -0.332,-1.934 h -2.468 v 23.84 h 2.8 V 6.535 c 1.133,1.434 2.735,2.301 4.768,2.301 4.335,0 7.303,-3.901 7.303,-8.836"
             style="fill:#000000;fill-opacity:1;fill-rule:nonzero;stroke:none"
             id="path1460" /></g><g
           style="fill:#000000"
           id="g1462"
           transform="translate(475.2651,71.5355)"><path
             d="m 0,0 c -1.801,-5.769 -4.735,-14.438 -5.703,-17.339 -1.799,-5.402 -4.101,-6.002 -6.534,-6.002 h -1.602 v 2.501 h 0.769 c 2.699,0 3.634,1.467 4.633,4.168 L -15.772,0 h 3.201 L -7.169,-13.038 -3.068,0 Z"
             style="fill:#000000;fill-opacity:1;fill-rule:nonzero;stroke:none"
             id="path1464" /></g><g
           style="fill:#000000"
           id="g1466"
           transform="translate(502.9751,58.9984)"><path
             d="m 0,0 c 0,0 -1.934,-4.635 -6.735,-4.635 -4.235,0 -7.635,3.934 -7.635,8.836 0,4.935 3.4,8.836 7.635,8.836 4.801,0 6.768,-4.701 6.768,-4.701 L -2.501,6.902 c 0,0 -1.266,3.301 -4.234,3.301 -2.601,0 -4.635,-2.634 -4.635,-6.002 0,-3.334 2.034,-6.002 4.635,-6.002 2.934,0 4.201,3.268 4.201,3.268 z"
             style="fill:#000000;fill-opacity:1;fill-rule:nonzero;stroke:none"
             id="path1468" /></g><path
           d="m 507.945,54.864 h 2.834 v 16.672 h -2.834 z m -0.834,21.94 c 0,1.233 1,2.233 2.267,2.233 1.234,0 2.235,-1 2.235,-2.233 0,-1.268 -1.001,-2.268 -2.235,-2.268 -1.267,0 -2.267,1 -2.267,2.268"
           style="fill:#000000;fill-opacity:1;fill-rule:nonzero;stroke:none"
           id="path1470" /><g
           style="fill:#000000"
           id="g1472"
           transform="translate(525.6509,68.8343)"><path
             d="m 0,0 h -0.767 c -3.267,0 -5.202,-2.034 -5.202,-5.302 v -8.669 H -8.702 V 2.701 h 2.4 L -5.969,0.3 c 0.901,1.334 2.367,2.401 4.368,2.401 l 1.601,0 z"
             style="fill:#000000;fill-opacity:1;fill-rule:nonzero;stroke:none"
             id="path1474" /></g><g
           style="fill:#000000"
           id="g1476"
           transform="translate(540.1899,57.3646)"><path
             d="m 0,0 c 4.567,0 7.502,4.635 7.502,9.169 0,4.535 -2.935,9.169 -7.502,9.169 -4.568,0 -7.503,-4.634 -7.503,-9.169 C -7.503,4.635 -4.568,0 0,0 m 9.336,-1.067 h 0.7 V -3.901 H 8.669 c -2.233,0 -3.634,0.666 -4.368,1.9 -1.3,-0.633 -2.767,-1 -4.301,-1 -5.969,0 -10.67,5.401 -10.67,12.17 0,6.802 4.701,12.17 10.67,12.17 6.002,0 10.67,-5.368 10.67,-12.17 0,-3.868 -1.534,-7.269 -3.936,-9.503 0.301,-0.433 1.002,-0.733 2.602,-0.733"
             style="fill:#000000;fill-opacity:1;fill-rule:nonzero;stroke:none"
             id="path1478" /></g></g></g></g></svg>