<?xml version="1.0" encoding="UTF-8" standalone="no"?>
<!-- Created with Inkscape (http://www.inkscape.org/) -->

<svg
   xmlns:dc="http://purl.org/dc/elements/1.1/"
   xmlns:cc="http://creativecommons.org/ns#"
   xmlns:rdf="http://www.w3.org/1999/02/22-rdf-syntax-ns#"
   xmlns:svg="http://www.w3.org/2000/svg"
   xmlns="http://www.w3.org/2000/svg"
   xmlns:sodipodi="http://sodipodi.sourceforge.net/DTD/sodipodi-0.dtd"
   xmlns:inkscape="http://www.inkscape.org/namespaces/inkscape"
   version="1.1"
   id="svg6057"
   xml:space="preserve"
   width="1122.52"
   height="793.70667"
   viewBox="0 0 1122.52 793.70667"
   sodipodi:docname="logo-refu_white.svg"
   inkscape:version="0.92.3 (2405546, 2018-03-11)"><metadata
     id="metadata6063"><rdf:RDF><cc:Work
         rdf:about=""><dc:format>image/svg+xml</dc:format><dc:type
           rdf:resource="http://purl.org/dc/dcmitype/StillImage" /><dc:title></dc:title></cc:Work></rdf:RDF></metadata><defs
     id="defs6061"><clipPath
       clipPathUnits="userSpaceOnUse"
       id="clipPath6073"><path
         d="M 0,595.28 H 841.89 V 0 H 0 Z"
         id="path6071"
         inkscape:connector-curvature="0" /></clipPath></defs><sodipodi:namedview
     pagecolor="#ffffff"
     bordercolor="#666666"
     borderopacity="1"
     objecttolerance="10"
     gridtolerance="10"
     guidetolerance="10"
     inkscape:pageopacity="0"
     inkscape:pageshadow="2"
     inkscape:window-width="2000"
     inkscape:window-height="1421"
     id="namedview6059"
     showgrid="false"
     inkscape:zoom="1.1893563"
     inkscape:cx="613.03652"
     inkscape:cy="348.96073"
     inkscape:window-x="2391"
     inkscape:window-y="-9"
     inkscape:window-maximized="1"
     inkscape:current-layer="g6065" /><g
     id="g6065"
     inkscape:groupmode="layer"
     inkscape:label="refu_interim_logo_opmaak"
     transform="matrix(1.3333333,0,0,-1.3333333,0,793.70667)"><g
       id="g6067"
       style="fill:#ffffff"><g
         id="g6069"
         clip-path="url(#clipPath6073)"
         style="fill:#ffffff"><g
           id="g6075"
           transform="translate(260.5337,278.4787)"
           style="fill:#ffffff"><path
             d="M 0,0 0.223,0.149 0.28,0.187 0.277,0.192 C 0.258,0.179 0.239,0.166 0.22,0.153 0.146,0.102 0.073,0.051 0,0"
             style="fill:#ffffff;fill-opacity:1;fill-rule:nonzero;stroke:none"
             id="path6077"
             inkscape:connector-curvature="0" /></g><g
           id="g6079"
           transform="translate(181.8916,253.9026)"
           style="fill:#ffffff"><path
             d="m 0,0 -0.235,0.352 -5.385,8.059 -19.225,28.773 -9.592,14.355 -0.023,0.034 -5.993,-4.004 -8.394,-5.61 c -3.973,-2.654 -5.043,-8.028 -2.387,-12.001 2.651,-3.968 8.012,-5.038 11.984,-2.398 -3.959,-2.659 -5.022,-8.022 -2.371,-11.989 2.651,-3.968 8.012,-5.038 11.984,-2.399 -3.959,-2.658 -5.022,-8.021 -2.371,-11.989 2.651,-3.967 8.012,-5.037 11.984,-2.398 -3.959,-2.659 -5.021,-8.021 -2.371,-11.989 2.655,-3.974 8.029,-5.042 12.002,-2.387 l 8.395,5.609 5.993,4.004 z"
             style="fill:#ffffff;fill-opacity:1;fill-rule:nonzero;stroke:none"
             id="path6081"
             inkscape:connector-curvature="0" /></g><g
           id="g6083"
           transform="translate(234.4912,393.3386)"
           style="fill:#ffffff"><path
             d="m 0,0 c 0,-13.988 -5.47,-26.712 -14.366,-36.184 l 19.288,-28.754 0.026,0.018 5.606,-8.358 -8.333,-5.472 c -9.748,-6.513 -13.658,-18.479 -10.405,-29.144 0.701,-2.384 1.768,-4.703 3.198,-6.888 l -3.71,-2.546 c -5.821,-3.889 -8.508,-10.694 -7.45,-17.18 0.385,-2.368 1.256,-4.695 2.676,-6.821 l 36.174,24.233 c 0,0 9.018,6.317 11.608,8.401 C 66.12,-83.117 86.518,-43.898 86.518,0 c 0,76.888 -62.554,139.44 -139.441,139.44 h -154.805 v -364.748 h 86.517 V 52.923 h 68.288 C -23.741,52.923 0,29.182 0,0"
             style="fill:#ffffff;fill-opacity:1;fill-rule:nonzero;stroke:none"
             id="path6085"
             inkscape:connector-curvature="0" /></g><g
           id="g6087"
           transform="translate(266.3022,270.3274)"
           style="fill:#ffffff"><path
             d="m 0,0 -48.027,-32.174 -5.553,8.31 c -2.072,3.099 -3.451,6.518 -4.126,10.074 -0.643,3.396 -0.644,6.917 0.051,10.409 1.149,5.778 4.062,10.915 8.337,14.811 -1.93,5.825 -2.329,12.079 -1.099,18.262 1.871,9.407 7.29,17.522 15.259,22.855 l -4.013,6.006 -12.29,18.27 -2.101,3.143 -0.138,0.207 c -0.01,-0.008 -0.021,-0.017 -0.031,-0.025 -2.755,3.572 -7.835,4.462 -11.642,1.918 v 0 c -3.876,-2.59 -4.977,-7.764 -2.564,-11.705 l -0.027,-0.019 c -2.718,3.738 -7.919,4.701 -11.796,2.111 -3.876,-2.591 -4.977,-7.765 -2.564,-11.705 l -0.028,-0.019 c -2.717,3.738 -7.919,4.701 -11.795,2.11 -3.877,-2.59 -4.978,-7.764 -2.564,-11.705 l -0.028,-0.019 c -2.718,3.739 -7.919,4.701 -11.796,2.111 -3.876,-2.59 -4.978,-7.765 -2.564,-11.705 l -0.03,-0.021 0.583,-0.84 29.204,-43.709 8.592,-12.859 6.179,-9.249 -14.291,-9.551 45.161,-67.589 H 68.353 Z"
             style="fill:#ffffff;fill-opacity:1;fill-rule:nonzero;stroke:none"
             id="path6089"
             inkscape:connector-curvature="0" /></g><g
           id="g6091"
           transform="translate(587.8164,306.091)"
           style="fill:#ffffff"><path
             d="M 0,0 H 33.641 V 44.598 H 0 V 61.393 C 0,72.251 8.531,80.782 19.389,80.782 H 33.736 V 125.38 H 10.468 c -32.185,0 -58.942,-25.983 -58.942,-58.169 V 44.598 H -73.682 V 0 h 25.208 V -138.596 H 0 Z"
             style="fill:#ffffff;fill-opacity:1;fill-rule:nonzero;stroke:none"
             id="path6093"
             inkscape:connector-curvature="0" /></g><g
           id="g6095"
           transform="translate(768.3418,233.6111)"
           style="fill:#ffffff"><path
             d="m 0,0 c -8.531,-15.898 -21.328,-19 -38.392,-19 -19.389,0 -32.962,16.286 -32.962,34.901 v 101.177 h -48.474 V 4.266 c 0,-35.288 31.798,-69.801 69.804,-69.801 22.49,0 39.165,8.531 50.024,21.717 l 5.463,-22.298 h 43.01 v 183.194 l -48.473,0 z"
             style="fill:#ffffff;fill-opacity:1;fill-rule:nonzero;stroke:none"
             id="path6097"
             inkscape:connector-curvature="0" /></g><g
           id="g6099"
           transform="translate(422.0967,327.8464)"
           style="fill:#ffffff"><path
             d="M 0,0 C 10.082,0 18.226,-1.551 24.432,-5.042 V -39.168 H -55.066 C -47.313,-16.675 -25.596,0 0,0 m 0,-114.012 c -25.206,0 -46.923,15.898 -54.68,38.005 H 64.462 V 22.607 C 46.856,37.112 24.761,45.759 0,45.759 -56.23,45.759 -101.989,0 -101.989,-57.007 c 0,-56.618 45.759,-102.764 101.989,-102.764 32.77,0 55.085,15.334 64.446,23.273 l -34.33,31.118 c -5.37,-3.813 -15.102,-8.632 -30.116,-8.632"
             style="fill:#ffffff;fill-opacity:1;fill-rule:nonzero;stroke:none"
             id="path6101"
             inkscape:connector-curvature="0" /></g><path
           d="m 207.059,74.007 h 12.555 v 61.579 h -12.555 z"
           style="fill:#ffffff;fill-opacity:1;fill-rule:nonzero;stroke:none"
           id="path6103"
           inkscape:connector-curvature="0" /><g
           id="g6105"
           transform="translate(284.8862,97.55)"
           style="fill:#ffffff"><path
             d="m 0,0 -23.872,38.036 h -11.819 v -61.579 h 12.125 V 14.491 L 0.306,-23.543 H 12.125 V 38.036 H 0 Z"
             style="fill:#ffffff;fill-opacity:1;fill-rule:nonzero;stroke:none"
             id="path6107"
             inkscape:connector-curvature="0" /></g><g
           id="g6109"
           transform="translate(322.7144,123.8899)"
           style="fill:#ffffff"><path
             d="M 0,0 H 17.543 V -49.883 H 30.27 V 0 H 47.817 V 11.696 H 0 Z"
             style="fill:#ffffff;fill-opacity:1;fill-rule:nonzero;stroke:none"
             id="path6111"
             inkscape:connector-curvature="0" /></g><g
           id="g6113"
           transform="translate(407.0737,99.4646)"
           style="fill:#ffffff"><path
             d="M 0,0 H 23.22 V 11.523 H 0 v 12.902 h 27.522 v 11.696 h -40.077 v -61.579 h 40.936 v 11.694 l -28.381,0 z"
             style="fill:#ffffff;fill-opacity:1;fill-rule:nonzero;stroke:none"
             id="path6115"
             inkscape:connector-curvature="0" /></g><g
           id="g6117"
           transform="translate(490.8501,106.3435)"
           style="fill:#ffffff"><path
             d="m 0,0 h -15.158 v 17.632 h 8.946 c 4.634,0 9.634,-3.815 9.634,-9.977 C 3.422,3.627 2.062,1.653 0,0 m 15.977,7.053 c 0,12.235 -9.955,22.189 -22.189,22.189 h -21.329 v -61.579 h 12.383 v 20.641 h 8.435 L 3.599,-32.337 H 17.19 L 5.55,-9.756 c 6.17,3.341 10.427,10.154 10.427,16.809"
             style="fill:#ffffff;fill-opacity:1;fill-rule:nonzero;stroke:none"
             id="path6119"
             inkscape:connector-curvature="0" /></g><path
           d="m 533.737,74.007 h 12.555 v 61.579 h -12.555 z"
           style="fill:#ffffff;fill-opacity:1;fill-rule:nonzero;stroke:none"
           id="path6121"
           inkscape:connector-curvature="0" /><g
           id="g6123"
           transform="translate(605.0156,90.4177)"
           style="fill:#ffffff"><path
             d="m 0,0 -16.363,45.168 h -12.78 v -61.579 h 12.125 V 14.531 L -6.24,-16.411 H 6.522 L 17.3,14.531 V -16.411 H 29.425 V 45.168 H 15.778 Z"
             style="fill:#ffffff;fill-opacity:1;fill-rule:nonzero;stroke:none"
             id="path6125"
             inkscape:connector-curvature="0" /></g><path
           d="m 663.152,97.228 h 153.402 v 11.265 H 663.152 Z"
           style="fill:#ffffff;fill-opacity:1;fill-rule:nonzero;stroke:none"
           id="path6127"
           inkscape:connector-curvature="0" /><path
           d="M 178.351,108.493 H 25.075 V 97.228 h 153.276 z"
           style="fill:#ffffff;fill-opacity:1;fill-rule:nonzero;stroke:none"
           id="path6129"
           inkscape:connector-curvature="0" /></g></g></g></svg>